<svg width="110" height="19" viewBox="0 0 110 19" fill="none" xmlns="http://www.w3.org/2000/svg">
<path fill-rule="evenodd" clip-rule="evenodd" d="M8.94087 0C6.90012 0 5.3567 0.344223 3.66576 1.17461C3.56881 1.22207 3.48768 1.2966 3.43218 1.38919C2.27098 3.32489 1.14588e-06 8.71288 1.14588e-06 15.0877C-0.000292379 15.2328 0.0558153 15.3722 0.156466 15.4766C1.22043 16.573 2.18716 17.3799 3.2243 17.9499C4.26703 18.5221 5.35335 18.8406 6.6386 18.9949C6.74576 19.0079 6.8544 18.9896 6.95138 18.9422C7.04837 18.8948 7.12955 18.8203 7.18511 18.7278L7.75509 17.7756C6.9247 17.485 6.07644 17.0994 5.5534 16.5764C5.47338 16.499 5.40957 16.4065 5.36569 16.3042C5.32181 16.2019 5.29873 16.0919 5.29782 15.9806C5.29691 15.8693 5.31817 15.759 5.36036 15.656C5.40255 15.553 5.46484 15.4594 5.54358 15.3808C5.62231 15.3021 5.71593 15.2399 5.81896 15.1978C5.92199 15.1557 6.03238 15.1345 6.14367 15.1356C6.25497 15.1366 6.36495 15.1598 6.46719 15.2037C6.56944 15.2477 6.6619 15.3116 6.73918 15.3917C7.02417 15.6767 7.69362 16.0008 8.63912 16.3037C9.42032 16.5082 10.7805 16.7641 12.2937 16.7641C13.8069 16.7641 15.1671 16.5082 15.9483 16.3037C16.8938 16.0008 17.5632 15.6756 17.8482 15.3917C17.9249 15.3094 18.0175 15.2433 18.1203 15.1975C18.2231 15.1517 18.3341 15.127 18.4467 15.1251C18.5592 15.1231 18.671 15.1438 18.7754 15.1859C18.8797 15.2281 18.9746 15.2908 19.0542 15.3704C19.1337 15.45 19.1965 15.5448 19.2387 15.6492C19.2808 15.7536 19.3015 15.8654 19.2995 15.9779C19.2975 16.0905 19.2729 16.2015 19.2271 16.3043C19.1813 16.4071 19.1152 16.4996 19.0329 16.5764C18.511 17.0994 17.6627 17.485 16.8312 17.7756L17.4023 18.7278C17.4577 18.8205 17.5388 18.8952 17.6358 18.9428C17.7328 18.9904 17.8415 19.0089 17.9488 18.996C19.234 18.8406 20.3204 18.5221 21.3631 17.9499C22.4002 17.3799 23.367 16.573 24.4298 15.4766C24.5309 15.3724 24.5874 15.2329 24.5874 15.0877C24.5874 8.71288 22.3164 3.32489 21.1552 1.38919C21.0997 1.2966 21.0186 1.22207 20.9216 1.17461C19.2307 0.344223 17.6873 0 15.6465 0C15.5293 8.90139e-05 15.415 0.0370467 15.32 0.105642C15.2249 0.174237 15.1538 0.270996 15.1168 0.382222L14.7413 1.50877C13.9505 1.25276 13.1249 1.12081 12.2937 1.11761C11.4625 1.12081 10.6369 1.25276 9.84613 1.50877L9.47062 0.382222C9.43357 0.270996 9.36248 0.174237 9.26741 0.105642C9.17234 0.0370467 9.0581 8.90139e-05 8.94087 0ZM10.0585 10.3379C10.0585 11.4175 9.30745 12.2937 8.38207 12.2937C7.45669 12.2937 6.70565 11.4175 6.70565 10.3379C6.70565 9.25827 7.45669 8.38206 8.38207 8.38206C9.30745 8.38206 10.0585 9.25827 10.0585 10.3379ZM16.2053 12.2937C17.1307 12.2937 17.8817 11.4175 17.8817 10.3379C17.8817 9.25827 17.1307 8.38206 16.2053 8.38206C15.2799 8.38206 14.5289 9.25827 14.5289 10.3379C14.5289 11.4175 15.2799 12.2937 16.2053 12.2937Z" fill="#CBC6BD"/>
<path fill-rule="evenodd" clip-rule="evenodd" d="M44.7916 4.38544C44.6579 6.08704 44.5898 7.79316 44.5874 9.5C44.5874 11.438 44.6824 13.2608 44.8035 14.7725C44.9769 16.9302 46.6216 18.5796 48.7436 18.7269C50.874 18.8753 53.8558 19 57.6499 19C61.4439 19 64.4258 18.8753 66.5561 18.7269C68.6782 18.5796 70.3229 16.9302 70.4963 14.7725C70.6174 13.2608 70.7124 11.438 70.7124 9.5C70.7124 7.6285 70.6245 5.86625 70.5081 4.38544C70.4342 3.32012 69.9776 2.31746 69.2225 1.56236C68.4674 0.807252 67.4647 0.350627 66.3994 0.276688C64.288 0.127063 61.4071 0 57.6499 0C53.8926 0 51.0106 0.127063 48.9004 0.276688C47.8351 0.350627 46.8324 0.807252 46.0773 1.56236C45.3222 2.31746 44.8656 3.32012 44.7916 4.38544ZM61.8061 9.5L55.2749 5.9375V13.0625L61.8061 9.5Z" fill="#CBC6BD"/>
<path d="M102.02 8.0452L109.093 0H107.417L101.275 6.98554L96.3701 0H90.7124L98.1302 10.5634L90.7124 19H92.3886L98.8743 11.623L104.055 19H109.712L102.02 8.0452H102.02ZM99.7242 10.6564L98.9726 9.60456L92.9926 1.2347H95.5671L100.393 7.98944L101.145 9.04132L107.418 17.8215H104.843L99.7242 10.6568V10.6564Z" fill="#CBC6BD"/>
</svg>
