<svg width="276" height="35" viewBox="0 0 276 35" fill="none" xmlns="http://www.w3.org/2000/svg">
<path fill-rule="evenodd" clip-rule="evenodd" d="M6.11271 3.81687H22.9509C23.9591 3.81687 24.7765 4.64059 24.7765 5.65671V19.7973C24.7765 20.8134 23.9591 21.6371 22.9508 21.6371H6.11271C5.10441 21.6371 4.28702 20.8134 4.28702 19.7973V5.65671C4.28702 4.64059 5.10441 3.81687 6.11271 3.81687ZM0.5 5.65671C0.5 2.53286 3.0129 0.000488281 6.11271 0.000488281H22.9509C26.0507 0.000488281 28.5636 2.53286 28.5636 5.65671V19.7973C28.5636 22.9211 26.0507 25.4535 22.9508 25.4535H6.11271C3.01289 25.4535 0.5 22.9211 0.5 19.7973V5.65671ZM14.5323 16.9692L21.5482 12.727L14.5323 8.48485V11.8791L8.91882 8.48486V16.9692L14.5323 13.575V16.9692Z" fill="#CBC6BD"/>
<path d="M35.9477 22.2271V3.44026H41.3079L43.9617 12.8731C44.6186 15.2378 45.1441 17.9442 45.1441 17.9442H45.1966C45.1966 17.9442 45.6958 15.2378 46.3527 12.8731L49.0065 3.44026H54.4455V22.2271H50.8983V11.4542C50.8983 9.93024 51.056 7.56547 51.056 7.56547H51.0034C51.0034 7.56547 50.583 9.77259 50.1889 11.1389L46.9571 22.2271H43.3048L40.1518 11.1389C39.7576 9.77259 39.3372 7.56547 39.3372 7.56547H39.2847C39.2847 7.56547 39.4423 9.93024 39.4423 11.4542V22.2271H35.9477ZM57.3739 22.2271V3.44026H61.1839V22.2271H57.3739ZM64.0961 22.2271V3.44026H67.906V19.0477H76.7345V22.2271H64.0961ZM78.7733 22.2271V3.44026H82.5832V19.0477H91.4117V22.2271H78.7733ZM93.4767 22.2271V3.44026H97.2866V22.2271H93.4767ZM108.449 22.6475C102.905 22.6475 99.3843 18.496 99.3843 12.8731C99.3843 7.25017 102.905 3.07241 108.449 3.07241C113.993 3.07241 117.488 7.25017 117.488 12.8731C117.488 18.496 113.993 22.6475 108.449 22.6475ZM108.476 19.5207C111.918 19.5207 113.599 16.6042 113.599 12.8731C113.599 9.11571 111.918 6.19916 108.476 6.19916C105.034 6.19916 103.273 9.11571 103.273 12.8731C103.273 16.6042 105.034 19.5207 108.476 19.5207ZM119.572 22.2271V3.44026H123.434L129.688 13.9241C130.292 14.9488 131.001 16.5516 131.001 16.5516H131.054C131.054 16.5516 130.949 14.6072 130.949 13.2935V3.44026H134.706V22.2271H131.028L124.617 11.8483C124.012 10.8499 123.277 9.24709 123.277 9.24709H123.224C123.224 9.24709 123.329 11.2177 123.329 12.5315V22.2271H119.572ZM146.938 22.2271L140.605 3.44026H144.599L147.91 14.3182C148.278 15.5531 148.725 17.3136 148.725 17.3136H148.777C148.777 17.3136 149.224 15.5269 149.592 14.3182L152.876 3.44026H156.738L150.406 22.2271H146.938ZM158.267 22.2271V3.44026H162.077V22.2271H158.267ZM164.989 22.2271V3.44026H178.81V6.64584H168.799V10.8499H177.575V13.9766H168.799V19.0477H178.888V22.2271H164.989ZM185.408 22.2271L179.943 3.44026H183.832L186.276 12.768C186.643 14.3708 187.09 16.8669 187.09 16.8669H187.143C187.143 16.8669 187.616 14.5284 188.01 12.8731L190.059 3.44026H193.738L195.787 12.8468C196.181 14.5021 196.654 16.8669 196.654 16.8669H196.707C196.707 16.8669 197.259 14.3708 197.626 12.7417L199.991 3.44026H203.749L198.388 22.2271H194.841L192.555 12.1636C192.24 10.7973 191.898 8.82668 191.898 8.82668H191.846C191.846 8.82668 191.557 10.7973 191.242 12.1636L188.929 22.2271H185.408ZM217.963 22.6212C212.682 22.6212 208.924 18.5485 208.924 12.8993C208.924 7.329 212.393 3.07241 217.937 3.07241C222.561 3.07241 225.294 5.83131 225.688 9.40474H221.904C221.563 7.51292 220.144 6.27799 217.937 6.27799C214.468 6.27799 212.813 9.16826 212.813 12.8993C212.813 16.7355 214.81 19.4944 217.963 19.4944C220.196 19.4944 221.773 18.1544 222.009 16.1837H225.74C225.635 17.8391 224.926 19.4419 223.665 20.6243C222.377 21.8329 220.564 22.6212 217.963 22.6212ZM227.7 22.2271V3.44026H231.51V19.0477H240.339V22.2271H227.7ZM249.245 22.5424C244.384 22.5424 241.835 20.2564 241.835 16.1837V3.44026H245.645V16.1837C245.645 18.1281 246.617 19.4944 249.166 19.4944C251.583 19.4944 252.713 18.0756 252.713 16.1312V3.44026H256.523V16.1837C256.523 20.2039 254.053 22.5424 249.245 22.5424ZM259.262 22.2271V3.44026H267.67C269.693 3.44026 271.243 3.93949 272.215 4.80657C273.24 5.72621 273.713 6.85604 273.713 8.32745C273.713 10.2455 272.531 11.4805 270.77 12.0848V12.1636C272.846 12.768 274.265 14.5021 274.265 16.8144C274.265 18.5748 273.713 19.7835 272.609 20.7294C271.532 21.6753 269.877 22.2271 267.88 22.2271H259.262ZM263.071 13.819V19.074H267.459C269.299 19.074 270.402 18.0493 270.402 16.5253C270.402 14.7386 269.088 13.819 267.354 13.819H263.071ZM263.071 11.0075H267.197C268.852 11.0075 269.982 10.2193 269.982 8.74786C269.982 7.35527 268.957 6.54074 267.275 6.54074H263.071V11.0075Z" fill="#CBC6BD"/>
<path opacity="0.4" d="M251.534 34.1515C250.839 33.091 250.296 31.9032 250.296 30.3081C250.296 28.8319 250.89 27.6525 251.534 26.7532H252.094C251.534 27.7034 251.102 28.9167 251.102 30.3081C251.102 31.8099 251.458 32.9807 252.094 34.1515H251.534ZM252.839 33.1504V27.0841H255.409C256.046 27.0841 256.529 27.2538 256.869 27.6101C257.115 27.8647 257.259 28.2125 257.259 28.6452C257.259 29.3155 256.886 29.7312 256.283 29.9179V29.9433C256.97 30.1045 257.505 30.5966 257.505 31.4111C257.505 31.8777 257.344 32.2765 257.064 32.5735C256.724 32.9383 256.198 33.1504 255.545 33.1504H252.839ZM253.602 32.4632H255.511C255.944 32.4632 256.258 32.3529 256.461 32.1577C256.631 31.9796 256.733 31.742 256.733 31.4535C256.733 30.6984 256.198 30.3251 255.46 30.3251H253.602V32.4632ZM253.602 29.6803H255.316C256.054 29.6803 256.495 29.3155 256.495 28.6876C256.495 28.1022 256.097 27.7459 255.418 27.7459H253.602V29.6803ZM258.299 33.1504V27.0841H262.583V27.7544H259.062V29.6718H262.261V30.3166H259.062V32.4462H262.685V33.1504H258.299ZM263.195 27.7544V27.0841H267.997V27.7544H265.978V33.1504H265.214V27.7544H263.195ZM267.509 33.1504L269.74 27.0841H270.597L272.837 33.1504H272.006L271.361 31.3008H268.943L268.29 33.1504H267.509ZM269.885 28.6452L269.164 30.6815H271.149L270.453 28.6452C270.334 28.3058 270.182 27.7883 270.182 27.7883H270.165C270.165 27.7883 270.003 28.2974 269.885 28.6452ZM273.112 34.1515C273.749 32.9807 274.105 31.8099 274.105 30.3081C274.105 28.9167 273.672 27.7034 273.112 26.7532H273.672C274.317 27.6525 274.911 28.8319 274.911 30.3081C274.911 31.9032 274.368 33.091 273.672 34.1515H273.112Z" fill="#CBC6BD"/>
</svg>
