<svg width="65" height="27" viewBox="0 0 65 27" fill="none" xmlns="http://www.w3.org/2000/svg">
<path fill-rule="evenodd" clip-rule="evenodd" d="M3.54994 7.45478H14.1998C14.8375 7.45478 15.3545 7.97576 15.3545 8.61844V17.5621C15.3545 18.2048 14.8375 18.7257 14.1998 18.7257H3.54993C2.91221 18.7257 2.39522 18.2048 2.39522 17.5621V8.61844C2.39522 7.97577 2.91221 7.45478 3.54994 7.45478ZM0 8.61844C0 6.64267 1.58936 5.04099 3.54994 5.04099H14.1998C16.1603 5.04099 17.7497 6.64267 17.7497 8.61844V17.5621C17.7497 19.5379 16.1603 21.1395 14.1998 21.1395H3.54993C1.58936 21.1395 0 19.5379 0 17.5621V8.61844ZM8.8752 15.7734L13.3126 13.0903L8.8752 10.4072V12.554L5.32475 10.4072V15.7734L8.8752 13.6266V15.7734Z" fill="#151212"/>
<path d="M23.021 20.5903V5.80998H27.238L29.3259 13.2311C29.8427 15.0916 30.2561 17.2208 30.2561 17.2208H30.2974C30.2974 17.2208 30.6902 15.0916 31.207 13.2311L33.2948 5.80998H37.5739V20.5903H34.7832V12.1149C34.7832 10.9159 34.9072 9.05545 34.9072 9.05545H34.8659C34.8659 9.05545 34.5351 10.7919 34.2251 11.8668L31.6824 20.5903H28.8091L26.3285 11.8668C26.0184 10.7919 25.6876 9.05545 25.6876 9.05545H25.6463C25.6463 9.05545 25.7703 10.9159 25.7703 12.1149V20.5903H23.021ZM43.7434 20.5903L38.7615 5.80998H41.9036L44.5083 14.3681C44.7977 15.3397 45.1491 16.7247 45.1491 16.7247H45.1904C45.1904 16.7247 45.5419 15.319 45.8313 14.3681L48.4152 5.80998H51.454L46.4721 20.5903H43.7434ZM58.3792 20.9004C54.2242 20.9004 51.2681 17.6962 51.2681 13.2518C51.2681 8.8694 53.9968 5.52058 58.3585 5.52058C61.9967 5.52058 64.1466 7.69111 64.4567 10.5025H61.4799C61.2112 9.0141 60.0949 8.04253 58.3585 8.04253C55.6298 8.04253 54.3275 10.3164 54.3275 13.2518C54.3275 16.2699 55.8986 18.4404 58.3792 18.4404C60.1363 18.4404 61.3766 17.3862 61.5626 15.8358H64.498C64.4153 17.1381 63.8572 18.3991 62.8649 19.3293C61.852 20.2802 60.4257 20.9004 58.3792 20.9004Z" fill="#151212"/>
<path opacity="0.7" d="M52.1178 26.9601C51.7788 26.4433 51.5142 25.8645 51.5142 25.0872C51.5142 24.3678 51.8036 23.7932 52.1178 23.3549H52.3907C52.1178 23.818 51.907 24.4092 51.907 25.0872C51.907 25.819 52.0806 26.3895 52.3907 26.9601H52.1178ZM52.7533 26.4722V23.5162H54.006C54.3161 23.5162 54.5518 23.5989 54.7171 23.7725C54.837 23.8965 54.9073 24.066 54.9073 24.2769C54.9073 24.6035 54.7254 24.8061 54.4319 24.897V24.9094C54.7667 24.988 55.0272 25.2278 55.0272 25.6247C55.0272 25.8521 54.9487 26.0464 54.8122 26.1911C54.6469 26.3689 54.3905 26.4722 54.0722 26.4722H52.7533ZM53.1254 26.1373H54.0556C54.2665 26.1373 54.4195 26.0836 54.5187 25.9885C54.6014 25.9017 54.651 25.7859 54.651 25.6454C54.651 25.2774 54.3905 25.0955 54.0308 25.0955H53.1254V26.1373ZM53.1254 24.7813H53.9605C54.3202 24.7813 54.5352 24.6035 54.5352 24.2976C54.5352 24.0123 54.3409 23.8386 54.0102 23.8386H53.1254V24.7813ZM55.414 26.4722V23.5162H57.5018V23.8428H55.7861V24.7771H57.3447V25.0913H55.7861V26.1291H57.5515V26.4722H55.414ZM57.7998 23.8428V23.5162H60.1398V23.8428H59.1559V26.4722H58.7838V23.8428H57.7998ZM59.9022 26.4722L60.9895 23.5162H61.4071L62.4985 26.4722H62.0934L61.7791 25.5709H60.6009L60.2825 26.4722H59.9022ZM61.0598 24.2769L60.7084 25.2691H61.6758L61.3368 24.2769C61.2789 24.1115 61.2045 23.8593 61.2045 23.8593H61.1962C61.1962 23.8593 61.1177 24.1074 61.0598 24.2769ZM62.6326 26.9601C62.9427 26.3895 63.1164 25.819 63.1164 25.0872C63.1164 24.4092 62.9055 23.818 62.6326 23.3549H62.9055C63.2197 23.7932 63.5091 24.3678 63.5091 25.0872C63.5091 25.8645 63.2445 26.4433 62.9055 26.9601H62.6326Z" fill="#403E3B"/>
</svg>
